<?xml version="1.0" encoding="utf-8"?>
<!-- Generator: Adobe Illustrator 16.0.0, SVG Export Plug-In . SVG Version: 6.00 Build 0)  -->
<!DOCTYPE svg PUBLIC "-//W3C//DTD SVG 1.1//EN" "http://www.w3.org/Graphics/SVG/1.1/DTD/svg11.dtd">
<svg version="1.1" id="Layer_1" xmlns="http://www.w3.org/2000/svg" xmlns:xlink="http://www.w3.org/1999/xlink" x="0px" y="0px"
	 width="275px" height="100px" viewBox="0 0 275 100" enable-background="new 0 0 275 100" xml:space="preserve">
<g>
	<g>
		<polygon fill-rule="evenodd" clip-rule="evenodd" fill="#F5881F" points="17.525,50 12.58,50 48.203,85.625 48.203,80.676 
			48.203,75.534 48.203,70.588 48.203,65.611 32.586,50 27.619,50 22.666,50 		"/>
		<polygon fill-rule="evenodd" clip-rule="evenodd" fill="#EA2925" points="48.203,75.534 48.203,80.676 48.203,85.625 83.838,50 
			78.888,50 73.736,50 68.801,50 63.824,50 48.203,65.611 48.203,70.588 		"/>
		<polygon fill-rule="evenodd" clip-rule="evenodd" fill="#007169" points="68.801,50 73.736,50 78.888,50 83.838,50 48.203,14.376 
			48.203,19.324 48.203,24.465 48.203,29.406 48.203,34.387 63.824,50 		"/>
		<polygon fill-rule="evenodd" clip-rule="evenodd" fill="#351A30" points="32.586,50 48.203,34.387 48.203,29.406 48.203,24.465 
			48.203,19.324 48.203,14.376 12.58,50 17.525,50 22.666,50 27.619,50 		"/>
	</g>
	<path fill-rule="evenodd" clip-rule="evenodd" fill="#351A30" d="M133.883,14.539v35.529c0,4.184-1.307,7.639-3.955,10.371
		c-2.641,2.729-6.207,4.094-10.703,4.094c-8.082,0-12.854-3.736-14.328-11.229l8.123-1.924c0.233,1.566,0.883,2.83,1.934,3.824
		c1.053,0.986,2.363,1.473,3.92,1.473c4.229,0,6.342-3.048,6.342-9.153V14.539H133.883z"/>
	<polygon fill-rule="evenodd" clip-rule="evenodd" fill="#351A30" points="176.719,14.539 176.719,22.395 153.105,22.395 
		153.105,34.372 175.482,34.372 175.482,42.223 153.105,42.223 153.105,55.441 177.957,55.441 177.957,63.289 144.422,63.289 
		144.422,14.539 	"/>
	<polygon fill-rule="evenodd" clip-rule="evenodd" fill="#351A30" points="220.105,14.539 220.105,22.395 205.158,22.395 
		205.158,63.289 196.482,63.289 196.482,22.395 181.543,22.395 181.543,14.539 	"/>
	<polygon fill-rule="evenodd" clip-rule="evenodd" fill="#351A30" points="259.842,14.539 259.842,22.395 233.6,55.441 
		260.252,55.441 260.252,63.289 222.996,63.289 222.996,55.441 249.025,22.395 223.406,22.395 223.406,14.539 	"/>
	<polygon fill-rule="evenodd" clip-rule="evenodd" fill="#818282" points="108.623,85.301 108.623,74.934 118.348,74.934 
		118.348,76.452 110.242,76.452 110.242,79.041 115.564,79.041 115.564,80.525 110.242,80.525 110.242,83.807 118.79,83.807 
		118.79,85.301 	"/>
	<g>
		<path fill-rule="evenodd" clip-rule="evenodd" fill="#818282" d="M125.402,79.264h5.514c0.555,0,0.986-0.121,1.278-0.368
			c0.292-0.243,0.444-0.591,0.444-1.05c0-0.445-0.152-0.799-0.444-1.035s-0.724-0.358-1.278-0.358h-5.514V79.264L125.402,79.264z
			 M125.402,80.779v4.521h-1.619v-10.34h7.133c1.057,0,1.883,0.25,2.48,0.765c0.605,0.511,0.904,1.213,0.904,2.12
			c0,0.736-0.236,1.38-0.709,1.912c-0.48,0.542-1.099,0.875-1.85,0.994l2.885,4.549h-1.766l-2.934-4.521H125.402z"/>
	</g>
	<g>
		<path fill-rule="evenodd" clip-rule="evenodd" fill="#818282" d="M141.53,79.264h5.923c0.549,0,0.973-0.121,1.266-0.368
			c0.299-0.243,0.451-0.591,0.451-1.05c0-0.438-0.146-0.781-0.438-1.029c-0.278-0.242-0.682-0.364-1.21-0.364h-5.992V79.264
			L141.53,79.264z M141.53,80.779v4.521h-1.612V74.934h7.535c1.063,0,1.898,0.25,2.482,0.758c0.598,0.507,0.896,1.216,0.896,2.137
			c0,0.862-0.299,1.574-0.891,2.124c-0.59,0.556-1.362,0.827-2.321,0.827H141.53z"/>
	</g>
	<path fill-rule="evenodd" clip-rule="evenodd" fill="#818282" d="M163.156,83.977l0.793-1.361c0.709,0.479,1.494,0.854,2.328,1.119
		c0.85,0.268,1.648,0.399,2.428,0.399c0.916,0,1.66-0.185,2.23-0.563c0.578-0.379,0.855-0.855,0.855-1.442
		c0-0.591-0.264-1.028-0.779-1.313c-0.521-0.296-1.342-0.445-2.461-0.48c-1.883-0.023-3.184-0.25-3.893-0.656
		c-0.701-0.414-1.049-1.096-1.049-2.055c0-0.89,0.381-1.612,1.154-2.148c0.777-0.549,1.813-0.813,3.121-0.813
		c0.896,0,1.752,0.121,2.6,0.375c0.84,0.244,1.641,0.619,2.418,1.119l-0.813,1.338c-0.654-0.43-1.342-0.768-2.086-1.011
		c-0.75-0.233-1.467-0.354-2.141-0.354c-0.785,0-1.418,0.132-1.898,0.41c-0.479,0.277-0.715,0.633-0.715,1.07
		c0,0.466,0.236,0.793,0.715,0.987c0.48,0.194,1.322,0.292,2.51,0.292c1.654,0,2.898,0.285,3.74,0.841
		c0.842,0.56,1.266,1.376,1.266,2.485c0,0.977-0.432,1.79-1.287,2.443c-0.84,0.643-1.959,0.967-3.314,0.967
		c-1.002,0-2.002-0.139-3.004-0.428C164.889,84.908,163.977,84.502,163.156,83.977z"/>
	<polygon fill-rule="evenodd" clip-rule="evenodd" fill="#818282" points="182.002,85.301 182.002,80.008 177.275,74.934 
		179.367,74.934 182.809,78.617 186.18,74.934 188.342,74.934 183.594,79.986 183.594,85.301 	"/>
	<path fill-rule="evenodd" clip-rule="evenodd" fill="#818282" d="M191.889,83.977l0.785-1.361c0.709,0.479,1.486,0.854,2.336,1.119
		c0.84,0.268,1.646,0.399,2.418,0.399c0.926,0,1.67-0.185,2.232-0.563c0.576-0.379,0.855-0.855,0.855-1.442
		c0-0.591-0.258-1.028-0.779-1.313c-0.521-0.296-1.334-0.445-2.461-0.48c-1.885-0.023-3.178-0.25-3.887-0.656
		c-0.701-0.414-1.057-1.096-1.057-2.055c0-0.89,0.391-1.612,1.168-2.148c0.771-0.549,1.809-0.813,3.115-0.813
		c0.889,0,1.752,0.121,2.592,0.375c0.842,0.244,1.648,0.619,2.428,1.119l-0.82,1.338c-0.641-0.43-1.342-0.768-2.086-1.011
		c-0.752-0.233-1.461-0.354-2.141-0.354c-0.787,0-1.418,0.132-1.891,0.41c-0.48,0.277-0.725,0.633-0.725,1.07
		c0,0.466,0.244,0.793,0.725,0.987c0.479,0.194,1.313,0.292,2.508,0.292c1.656,0,2.893,0.285,3.734,0.841
		c0.848,0.56,1.271,1.376,1.271,2.485c0,0.977-0.438,1.79-1.285,2.443c-0.855,0.643-1.961,0.967-3.316,0.967
		c-1.008,0-2.002-0.139-3.004-0.428C193.619,84.908,192.709,84.502,191.889,83.977z"/>
	<polygon fill-rule="evenodd" clip-rule="evenodd" fill="#818282" points="210.205,85.301 210.205,76.379 205.832,76.379 
		205.832,74.934 216.197,74.934 216.197,76.379 211.824,76.379 211.824,85.301 	"/>
	<polygon fill-rule="evenodd" clip-rule="evenodd" fill="#818282" points="220.459,85.301 220.459,74.934 230.193,74.934 
		230.193,76.452 222.078,76.452 222.078,79.041 227.406,79.041 227.406,80.525 222.078,80.525 222.078,83.807 230.639,83.807 
		230.639,85.301 	"/>
	<polygon fill-rule="evenodd" clip-rule="evenodd" fill="#818282" points="235.607,85.301 235.607,74.934 236.949,74.934 
		241.197,81.002 245.451,74.934 246.793,74.934 246.793,85.301 245.182,85.301 245.182,77.846 241.197,83.615 237.215,77.846 
		237.215,85.301 	"/>
	<path fill-rule="evenodd" clip-rule="evenodd" fill="#818282" d="M252.105,83.977l0.785-1.361c0.715,0.479,1.494,0.854,2.328,1.119
		c0.855,0.268,1.654,0.399,2.426,0.399c0.918,0,1.668-0.185,2.246-0.563c0.557-0.379,0.842-0.855,0.842-1.442
		c0-0.591-0.266-1.028-0.779-1.313c-0.521-0.296-1.334-0.445-2.455-0.48c-1.891-0.023-3.189-0.25-3.893-0.656
		c-0.701-0.414-1.057-1.096-1.057-2.055c0-0.89,0.391-1.612,1.162-2.148c0.771-0.549,1.807-0.813,3.121-0.813
		c0.889,0,1.758,0.121,2.592,0.375c0.836,0.244,1.648,0.619,2.42,1.119l-0.807,1.338c-0.652-0.43-1.348-0.768-2.092-1.011
		c-0.744-0.233-1.461-0.354-2.141-0.354c-0.787,0-1.412,0.132-1.898,0.41c-0.473,0.277-0.717,0.633-0.717,1.07
		c0,0.466,0.244,0.793,0.717,0.987c0.486,0.194,1.328,0.292,2.51,0.292c1.654,0,2.906,0.285,3.74,0.841
		c0.84,0.56,1.264,1.376,1.264,2.485c0,0.977-0.424,1.79-1.277,2.443c-0.855,0.643-1.969,0.967-3.324,0.967
		c-1.008,0-2.002-0.139-2.996-0.428C253.836,84.908,252.932,84.502,252.105,83.977z"/>
</g>
</svg>